# xmcd
#
# Track frame offsets: 
#        150
#        19372
#        35169
#        51217
#        69195
#        85587
#        102003
#        117916
#        137069
#        160903
#        182031
#        200392
#        231230
#        249543
#        267095
#        284099
#        302399
#        314572
#        330345
#        343432
#
# Disc length: 4798 seconds
#
# Revision: 0
# Processed by: cddbd v1.5.2PL0 Copyright (c) Steve Scherf et al.
# Submitted via: ExactAudioCopy v0.99pb4
#
DISCID=2212bc14
DTITLE=Various Artist - prevue promo 1097A-1
DYEAR=2002
DGENRE=pop
TTITLE0=Lamya - Never Enough
TTITLE1=Michael Bolton - Dance With Me
TTITLE2=Carolyn Dawn Johnson - So Complicated(Bob Rock's Mix with Intr
TTITLE2=o)
TTITLE3=Kellie Coffey - When You Lie Next To Me
TTITLE4=Dishwalla - Somewhere In The Middle(Chris Lord-Alge Mix Edit)
TTITLE5=DJ Shadow - Six Days
TTITLE6=B2K - Why I Love You
TTITLE7=Nappy Roots feat. Anthony Hamilton - Po' Folks
TTITLE8=Inc, The feat. Ja Rule, Ashanti, Charli Baltimore and Vita - Dow
TTITLE8=n 4 U
TTITLE9=Peter Gabriel - Barry Williams Show, The(Unadulterated Version
TTITLE9=)
TTITLE10=Peter Wolf - Sleepless
TTITLE11=David Grisman Quintet - Slade(Instrumental - Album Version)
TTITLE12=Charlie Daniels Band, The - Last Fallen Hero, The
TTITLE13=Dolly Parton - Dagger Through The Heart
TTITLE14=Willie Nelson - Maria (Shut Up And Kiss Me - Single Version)
TTITLE15=Aimee Mann - Humpty Dumpty
TTITLE16=Mighty Mighty Bosstones - You Gotta Go
TTITLE17=Sugar Cult - Pretty Girl (The Way)
TTITLE18=Maroon 5 - Harder To Breathe
TTITLE19=Disturbed - Prayer
EXTD=
EXTT0=
EXTT1=
EXTT2=
EXTT3=
EXTT4=
EXTT5=
EXTT6=
EXTT7=
EXTT8=
EXTT9=
EXTT10=
EXTT11=
EXTT12=
EXTT13=
EXTT14=
EXTT15=
EXTT16=
EXTT17=
EXTT18=
EXTT19=
PLAYORDER=
